<svg width="270" height="188" viewBox="0 0 270 188" fill="none" xmlns="http://www.w3.org/2000/svg">
<g clip-path="url(#clip0_1190_5227)">
<path d="M207.92 48.4043C197.379 39.8426 187.292 33.1052 180.693 29.8335L166.896 41.3841C196.73 60.5483 217.713 87.1263 200.035 101.926C193.453 107.438 184.558 108.714 176.839 105.758L208.458 143.526L208.525 143.471C248.778 109.773 237.987 72.8142 207.92 48.4099V48.4043Z" fill="#2089C9"/>
<path d="M161.684 34.7632L156.155 36.1107C154.497 36.5155 153.067 37.5635 152.179 39.0219L143.972 52.5133C140.989 57.4153 145.425 63.4762 150.998 62.1176L190.741 52.4413C194.196 51.5984 196.314 48.116 195.477 44.6614L185.8 4.91903C184.442 -0.653875 177.022 -1.80727 174.044 3.09467L165.837 16.5861C164.95 18.0445 164.678 19.7968 165.083 21.4548L166.431 26.9833C167.274 30.438 165.155 33.9203 161.695 34.7632H161.684Z" fill="#2089C9"/>
<path d="M253.697 168.225L198.36 157.694L188.889 187.722H266.157C269.179 187.722 271.015 183.712 269.401 180.646C265.896 173.986 260.174 169.461 253.697 168.23V168.225Z" fill="#27AAE1"/>
<path d="M16.3034 168.225L71.6397 157.694L81.111 187.722H3.84312C0.820943 187.722 -1.01454 183.712 0.599132 180.646C4.10375 173.986 9.82647 169.461 16.3034 168.23V168.225Z" fill="#27AAE1"/>
<path d="M213.782 131.393C213.782 99.7026 188.091 74.0117 156.399 74.0117H113.595C81.9042 74.0117 56.2129 99.7026 56.2129 131.393V162.668C56.2129 169.411 58.8802 175.522 63.211 180.025C72.9485 171.119 91.8579 165.075 113.595 165.075H156.399C178.137 165.075 197.046 171.119 206.784 180.025C211.115 175.522 213.782 169.406 213.782 162.668V131.393Z" fill="#27AAE1"/>
<path d="M113.595 165.075C91.8578 165.075 72.9484 171.119 63.2109 180.025C67.7692 184.766 74.174 187.722 81.2719 187.722H188.728C195.826 187.722 202.225 184.766 206.789 180.025C197.052 171.119 178.142 165.075 156.405 165.075H113.601H113.595Z" fill="#B4E6FF"/>
<path d="M96.3385 139.517C96.3385 134.09 91.9391 129.691 86.5123 129.691C81.0854 129.691 76.686 134.09 76.686 139.517V152.515C76.686 157.942 81.0854 162.341 86.5123 162.341C91.9391 162.341 96.3385 157.942 96.3385 152.515V139.517Z" fill="white"/>
<path d="M88.4087 132.83C84.028 132.83 80.479 136.789 80.479 141.674V148.644C80.479 153.53 84.028 157.489 88.4087 157.489C92.7895 157.489 96.3385 153.53 96.3385 148.644V141.674C96.3385 136.789 92.7895 132.83 88.4087 132.83Z" fill="#262262"/>
<path d="M85.5475 140.793C86.8368 140.793 87.882 139.747 87.882 138.458C87.882 137.169 86.8368 136.124 85.5475 136.124C84.2581 136.124 83.2129 137.169 83.2129 138.458C83.2129 139.747 84.2581 140.793 85.5475 140.793Z" fill="white"/>
<path d="M193.314 139.517C193.314 134.09 188.915 129.691 183.488 129.691C178.061 129.691 173.662 134.09 173.662 139.517V152.515C173.662 157.942 178.061 162.341 183.488 162.341C188.915 162.341 193.314 157.942 193.314 152.515V139.517Z" fill="white"/>
<path d="M181.68 132.83C177.299 132.83 173.75 136.789 173.75 141.674V148.644C173.75 153.53 177.299 157.489 181.68 157.489C186.061 157.489 189.61 153.53 189.61 148.644V141.674C189.61 136.789 186.061 132.83 181.68 132.83Z" fill="#262262"/>
<path d="M178.819 140.793C180.108 140.793 181.153 139.747 181.153 138.458C181.153 137.169 180.108 136.124 178.819 136.124C177.53 136.124 176.484 137.169 176.484 138.458C176.484 139.747 177.53 140.793 178.819 140.793Z" fill="white"/>
<path d="M109.647 176.398C115.636 178.245 124.397 180.23 135.1 180.214C145.702 180.202 154.392 178.234 160.353 176.398" stroke="#262262" stroke-width="8" stroke-miterlimit="10" stroke-linecap="round"/>
<path d="M135 81.0101C139.126 81.0101 142.514 82.1136 142.958 83.5277C142.991 83.3724 143.007 83.2171 143.007 83.0619C143.007 80.7273 139.42 78.8364 135 78.8364C130.58 78.8364 126.993 80.7273 126.993 83.0619C126.993 83.2227 127.015 83.3779 127.043 83.5277C127.486 82.1136 130.874 81.0101 135 81.0101Z" fill="#2089C9"/>
<path d="M135 81.0103C130.874 81.0103 127.486 82.1137 127.042 83.5278C127.187 84.2265 127.652 84.8697 128.362 85.4242C129.804 86.5443 132.238 87.2874 135 87.2874C137.761 87.2874 140.196 86.5499 141.638 85.4242C142.347 84.8697 142.813 84.2265 142.957 83.5278C142.514 82.1137 139.126 81.0103 135 81.0103Z" fill="#0D669E"/>
</g>
<defs>
<clipPath id="clip0_1190_5227">
<rect width="270" height="187.722" fill="white"/>
</clipPath>
</defs>
</svg>
