<?xml version="1.0" encoding="UTF-8"?>
<svg id="Layer_2" data-name="Layer 2" xmlns="http://www.w3.org/2000/svg" viewBox="0 0 259.29 259.29">
  <defs>
    <style>
      .cls-1 {
        fill: #27aae1;
      }

      .cls-1, .cls-2, .cls-3, .cls-4 {
        stroke-width: 0px;
      }

      .cls-2 {
        fill: #fff;
      }

      .cls-3 {
        fill: #262262;
      }

      .cls-4 {
        fill: #b4e6ff;
      }
    </style>
  </defs>
  <g id="Layer_1-2" data-name="Layer 1">
    <path class="cls-1" d="m246.62,185.58c3.92-8.18,7.01-16.84,9.15-25.86,2.29-9.65,3.51-19.72,3.51-30.07C259.29,58.04,201.24,0,129.64,0S0,58.04,0,129.64c0,10.35,1.22,20.42,3.51,30.07,2.41,10.13,6.01,19.8,10.63,28.85,34.4-10.95,76.17-17.38,121.22-17.38,40.79,0,78.89,5.27,111.26,14.39Z"/>
    <path class="cls-4" d="m128.9,259.29c51.57,0,96.84-30.11,117.72-73.71-32.37-9.12-71.21-14.39-112-14.39-45.05,0-86.08,6.43-120.48,17.38,21.46,41.98,64.37,70.72,114.76,70.72Z"/>
    <g>
      <g>
        <rect class="cls-2" x="24.48" y="107.94" width="35.44" height="58.88" rx="17.72" ry="17.72"/>
        <g>
          <path class="cls-3" d="m45.62,113.6h0c-7.9,0-14.3,7.14-14.3,15.95v12.57c0,8.81,6.4,15.95,14.3,15.95h0c7.9,0,14.3-7.14,14.3-15.95v-12.57c0-8.81-6.4-15.95-14.3-15.95Z"/>
          <circle class="cls-2" cx="40.46" cy="123.75" r="4.21"/>
        </g>
      </g>
      <g>
        <rect class="cls-2" x="199.37" y="107.94" width="35.44" height="58.88" rx="17.72" ry="17.72"/>
        <g>
          <path class="cls-3" d="m213.82,113.6h0c-7.9,0-14.3,7.14-14.3,15.95v12.57c0,8.81,6.4,15.95,14.3,15.95h0c7.9,0,14.3-7.14,14.3-15.95v-12.57c0-8.81-6.4-15.95-14.3-15.95Z"/>
          <circle class="cls-2" cx="208.66" cy="123.75" r="4.21"/>
        </g>
      </g>
    </g>
    <path class="cls-3" d="m129.64,205.26c-15.91,0-31.69-2.38-46.89-7.06-2.11-.65-3.3-2.89-2.64-5,.65-2.11,2.88-3.29,5-2.64,14.44,4.45,29.43,6.71,44.54,6.71h.18c15.05-.02,29.98-2.27,44.36-6.71,2.12-.65,4.35.53,5,2.65.65,2.11-.53,4.35-2.64,5-15.15,4.67-30.86,7.04-46.71,7.06h-.19Z"/>
  </g>
</svg>